<svg height="3454" width="720" xmlns="http://www.w3.org/2000/svg">
<rect height="3454" fill="#555" width="720"></rect>
<text fill="#7f7" font-family="Courier New" font-size="12" xml:space="preserve">
<tspan x="10" y="26">24 megabytes installed</tspan>
<tspan x="10" y="42"></tspan>
<tspan x="10" y="58">node_modules</tspan>
<tspan x="10" y="74">└─┬ code-music-studio@1.5.2 </tspan>
<tspan x="10" y="90">  ├─┬ amplitude-viewer@0.0.2 </tspan>
<tspan x="10" y="106">  │ ├─┬ brfs@1.0.2 </tspan>
<tspan x="10" y="122">  │ │ ├─┬ escodegen@0.0.17 </tspan>
<tspan x="10" y="138">  │ │ │ ├── esprima@1.0.4 </tspan>
<tspan x="10" y="154">  │ │ │ ├── estraverse@0.0.4 </tspan>
<tspan x="10" y="170">  │ │ │ └── source-map@0.5.6 </tspan>
<tspan x="10" y="186">  │ │ ├── falafel@0.1.6 </tspan>
<tspan x="10" y="202">  │ │ └── through@2.2.7 </tspan>
<tspan x="10" y="218">  │ ├── domify@0.2.0 </tspan>
<tspan x="10" y="234">  │ ├── inherits@2.0.3 </tspan>
<tspan x="10" y="250">  │ └─┬ slideways@0.0.4 </tspan>
<tspan x="10" y="266">  │   └── hyperglue@0.1.5 </tspan>
<tspan x="10" y="282">  ├─┬ bytewise@0.7.1 </tspan>
<tspan x="10" y="298">  │ └─┬ bops@0.1.1 </tspan>
<tspan x="10" y="314">  │   ├── base64-js@0.0.2 </tspan>
<tspan x="10" y="330">  │   └── to-utf8@0.0.1 </tspan>
<tspan x="10" y="346">  ├─┬ concat-stream@1.4.10 </tspan>
<tspan x="10" y="362">  │ ├─┬ readable-stream@1.1.14 </tspan>
<tspan x="10" y="378">  │ │ ├── core-util-is@1.0.2 </tspan>
<tspan x="10" y="394">  │ │ ├── isarray@0.0.1 </tspan>
<tspan x="10" y="410">  │ │ └── string_decoder@0.10.31 </tspan>
<tspan x="10" y="426">  │ └── typedarray@0.0.6 </tspan>
<tspan x="10" y="442">  ├─┬ ecstatic@0.4.13 </tspan>
<tspan x="10" y="458">  │ ├── ent@0.0.7 </tspan>
<tspan x="10" y="474">  │ ├── mime@1.2.11 </tspan>
<tspan x="10" y="490">  │ └─┬ optimist@0.3.7 </tspan>
<tspan x="10" y="506">  │   └── wordwrap@0.0.3 </tspan>
<tspan x="10" y="522">  ├── ent@0.1.0 </tspan>
<tspan x="10" y="538">  ├─┬ frequency-viewer@0.1.0 </tspan>
<tspan x="10" y="554">  │ ├─┬ ndarray@1.0.18 </tspan>
<tspan x="10" y="570">  │ │ ├── iota-array@1.0.0 </tspan>
<tspan x="10" y="586">  │ │ └── is-buffer@1.1.5 </tspan>
<tspan x="10" y="602">  │ ├─┬ ndarray-complex@1.0.3 </tspan>
<tspan x="10" y="618">  │ │ ├─┬ cwise@1.0.10 </tspan>
<tspan x="10" y="634">  │ │ │ ├─┬ cwise-compiler@1.1.2 </tspan>
<tspan x="10" y="650">  │ │ │ │ └── uniq@1.0.1 </tspan>
<tspan x="10" y="666">  │ │ │ ├── cwise-parser@1.0.3 </tspan>
<tspan x="10" y="682">  │ │ │ ├─┬ static-module@1.3.1 </tspan>
<tspan x="10" y="698">  │ │ │ │ ├─┬ escodegen@1.3.3 </tspan>
<tspan x="10" y="714">  │ │ │ │ │ ├── esprima@1.1.1 </tspan>
<tspan x="10" y="730">  │ │ │ │ │ ├── estraverse@1.5.1 </tspan>
<tspan x="10" y="746">  │ │ │ │ │ ├── esutils@1.0.0 </tspan>
<tspan x="10" y="762">  │ │ │ │ │ └─┬ source-map@0.1.43 </tspan>
<tspan x="10" y="778">  │ │ │ │ │   └── amdefine@1.0.1 </tspan>
<tspan x="10" y="794">  │ │ │ │ ├─┬ falafel@1.2.0 </tspan>
<tspan x="10" y="810">  │ │ │ │ │ ├── acorn@1.2.2 </tspan>
<tspan x="10" y="826">  │ │ │ │ │ ├── foreach@2.0.5 </tspan>
<tspan x="10" y="842">  │ │ │ │ │ └── object-keys@1.0.11 </tspan>
<tspan x="10" y="858">  │ │ │ │ ├─┬ has@1.0.1 </tspan>
<tspan x="10" y="874">  │ │ │ │ │ └── function-bind@1.1.0 </tspan>
<tspan x="10" y="890">  │ │ │ │ ├── object-inspect@0.4.0 </tspan>
<tspan x="10" y="906">  │ │ │ │ ├─┬ quote-stream@0.0.0 </tspan>
<tspan x="10" y="922">  │ │ │ │ │ ├── minimist@0.0.8 </tspan>
<tspan x="10" y="938">  │ │ │ │ │ └─┬ through2@0.4.2 </tspan>
<tspan x="10" y="954">  │ │ │ │ │   └── readable-stream@1.0.34 </tspan>
<tspan x="10" y="970">  │ │ │ │ ├── readable-stream@1.0.34 </tspan>
<tspan x="10" y="986">  │ │ │ │ ├── shallow-copy@0.0.1 </tspan>
<tspan x="10" y="1002">  │ │ │ │ ├─┬ static-eval@0.2.4 </tspan>
<tspan x="10" y="1018">  │ │ │ │ │ └─┬ escodegen@0.0.28 </tspan>
<tspan x="10" y="1034">  │ │ │ │ │   └── estraverse@1.3.2 </tspan>
<tspan x="10" y="1050">  │ │ │ │ └── through2@0.4.2 </tspan>
<tspan x="10" y="1066">  │ │ │ └─┬ uglify-js@2.8.22 </tspan>
<tspan x="10" y="1082">  │ │ │   ├── uglify-to-browserify@1.0.2 </tspan>
<tspan x="10" y="1098">  │ │ │   └─┬ yargs@3.10.0 </tspan>
<tspan x="10" y="1114">  │ │ │     ├── camelcase@1.2.1 </tspan>
<tspan x="10" y="1130">  │ │ │     ├─┬ cliui@2.1.0 </tspan>
<tspan x="10" y="1146">  │ │ │     │ ├─┬ center-align@0.1.3 </tspan>
<tspan x="10" y="1162">  │ │ │     │ │ ├─┬ align-text@0.1.4 </tspan>
<tspan x="10" y="1178">  │ │ │     │ │ │ ├── kind-of@3.1.0 </tspan>
<tspan x="10" y="1194">  │ │ │     │ │ │ ├── longest@1.0.1 </tspan>
<tspan x="10" y="1210">  │ │ │     │ │ │ └── repeat-string@1.6.1 </tspan>
<tspan x="10" y="1226">  │ │ │     │ │ └── lazy-cache@1.0.4 </tspan>
<tspan x="10" y="1242">  │ │ │     │ ├── right-align@0.1.3 </tspan>
<tspan x="10" y="1258">  │ │ │     │ └── wordwrap@0.0.2 </tspan>
<tspan x="10" y="1274">  │ │ │     ├── decamelize@1.2.0 </tspan>
<tspan x="10" y="1290">  │ │ │     └── window-size@0.1.0 </tspan>
<tspan x="10" y="1306">  │ │ └── ndarray-ops@1.2.2 </tspan>
<tspan x="10" y="1322">  │ └─┬ ndarray-fft@0.1.0 </tspan>
<tspan x="10" y="1338">  │   ├── bit-twiddle@0.0.2 </tspan>
<tspan x="10" y="1354">  │   ├─┬ cwise@0.3.4 </tspan>
<tspan x="10" y="1370">  │   │ ├─┬ cwise-compiler@0.0.0 </tspan>
<tspan x="10" y="1386">  │   │ │ └── uniq@0.0.2 </tspan>
<tspan x="10" y="1402">  │   │ └── cwise-parser@0.0.1 </tspan>
<tspan x="10" y="1418">  │   ├── ndarray-ops@1.1.1 </tspan>
<tspan x="10" y="1434">  │   └─┬ typedarray-pool@0.1.2 </tspan>
<tspan x="10" y="1450">  │     └── dup@0.0.0 </tspan>
<tspan x="10" y="1466">  ├─┬ hyperquest@0.3.0 </tspan>
<tspan x="10" y="1482">  │ ├── duplexer@0.1.1 </tspan>
<tspan x="10" y="1498">  │ └── through@2.2.7 </tspan>
<tspan x="10" y="1514">  ├─┬ hyperspace@0.9.3 </tspan>
<tspan x="10" y="1530">  │ ├─┬ hyperglue@1.3.3 </tspan>
<tspan x="10" y="1546">  │ │ ├─┬ concat-stream@1.0.1 </tspan>
<tspan x="10" y="1562">  │ │ │ └── bops@0.0.6 </tspan>
<tspan x="10" y="1578">  │ │ ├── ent@0.0.7 </tspan>
<tspan x="10" y="1594">  │ │ └─┬ trumpet@1.6.3 </tspan>
<tspan x="10" y="1610">  │ │   ├── buffers@0.1.1 </tspan>
<tspan x="10" y="1626">  │ │   └── sax@0.5.8 </tspan>
<tspan x="10" y="1642">  │ ├── readable-stream@1.0.34 </tspan>
<tspan x="10" y="1658">  │ └── through@2.3.8 </tspan>
<tspan x="10" y="1674">  ├── keycode@0.3.0 </tspan>
<tspan x="10" y="1690">  ├─┬ level@1.6.0 </tspan>
<tspan x="10" y="1706">  │ ├─┬ level-packager@1.2.1 </tspan>
<tspan x="10" y="1722">  │ │ └─┬ levelup@1.3.5 </tspan>
<tspan x="10" y="1738">  │ │   ├─┬ deferred-leveldown@1.2.1 </tspan>
<tspan x="10" y="1754">  │ │   │ └─┬ abstract-leveldown@2.4.1 </tspan>
<tspan x="10" y="1770">  │ │   │   └── xtend@4.0.1 </tspan>
<tspan x="10" y="1786">  │ │   ├── level-codec@6.1.0 </tspan>
<tspan x="10" y="1802">  │ │   ├─┬ level-errors@1.0.4 </tspan>
<tspan x="10" y="1818">  │ │   │ └─┬ errno@0.1.4 </tspan>
<tspan x="10" y="1834">  │ │   │   └── prr@0.0.0 </tspan>
<tspan x="10" y="1850">  │ │   ├─┬ level-iterator-stream@1.3.1 </tspan>
<tspan x="10" y="1866">  │ │   │ └── xtend@4.0.1 </tspan>
<tspan x="10" y="1882">  │ │   ├── prr@1.0.1 </tspan>
<tspan x="10" y="1898">  │ │   ├── semver@5.1.1 </tspan>
<tspan x="10" y="1914">  │ │   └── xtend@4.0.1 </tspan>
<tspan x="10" y="1930">  │ └─┬ leveldown@1.6.0 </tspan>
<tspan x="10" y="1946">  │   ├─┬ abstract-leveldown@2.6.1 </tspan>
<tspan x="10" y="1962">  │   │ └── xtend@4.0.1 </tspan>
<tspan x="10" y="1978">  │   ├── bindings@1.2.1 </tspan>
<tspan x="10" y="1994">  │   ├── fast-future@1.0.2 </tspan>
<tspan x="10" y="2010">  │   ├── nan@2.5.1 </tspan>
<tspan x="10" y="2026">  │   └─┬ prebuild-install@2.1.2 </tspan>
<tspan x="10" y="2042">  │     ├── expand-template@1.0.3 </tspan>
<tspan x="10" y="2058">  │     ├── github-from-package@0.0.0 </tspan>
<tspan x="10" y="2074">  │     ├── minimist@1.2.0 </tspan>
<tspan x="10" y="2090">  │     ├─┬ mkdirp@0.5.1 </tspan>
<tspan x="10" y="2106">  │     │ └── minimist@0.0.8 </tspan>
<tspan x="10" y="2122">  │     ├── node-abi@2.0.0 </tspan>
<tspan x="10" y="2138">  │     ├── noop-logger@0.1.1 </tspan>
<tspan x="10" y="2154">  │     ├─┬ npmlog@4.0.2 </tspan>
<tspan x="10" y="2170">  │     │ ├─┬ are-we-there-yet@1.1.2 </tspan>
<tspan x="10" y="2186">  │     │ │ └── delegates@1.0.0 </tspan>
<tspan x="10" y="2202">  │     │ ├── console-control-strings@1.1.0 </tspan>
<tspan x="10" y="2218">  │     │ ├─┬ gauge@2.7.3 </tspan>
<tspan x="10" y="2234">  │     │ │ ├── aproba@1.1.1 </tspan>
<tspan x="10" y="2250">  │     │ │ ├── has-unicode@2.0.1 </tspan>
<tspan x="10" y="2266">  │     │ │ ├── object-assign@4.1.1 </tspan>
<tspan x="10" y="2282">  │     │ │ ├── signal-exit@3.0.2 </tspan>
<tspan x="10" y="2298">  │     │ │ ├─┬ string-width@1.0.2 </tspan>
<tspan x="10" y="2314">  │     │ │ │ ├── code-point-at@1.1.0 </tspan>
<tspan x="10" y="2330">  │     │ │ │ └─┬ is-fullwidth-code-point@1.0.0 </tspan>
<tspan x="10" y="2346">  │     │ │ │   └── number-is-nan@1.0.1 </tspan>
<tspan x="10" y="2362">  │     │ │ ├─┬ strip-ansi@3.0.1 </tspan>
<tspan x="10" y="2378">  │     │ │ │ └── ansi-regex@2.1.1 </tspan>
<tspan x="10" y="2394">  │     │ │ └── wide-align@1.1.0 </tspan>
<tspan x="10" y="2410">  │     │ └── set-blocking@2.0.0 </tspan>
<tspan x="10" y="2426">  │     ├── os-homedir@1.0.2 </tspan>
<tspan x="10" y="2442">  │     ├─┬ pump@1.0.2 </tspan>
<tspan x="10" y="2458">  │     │ ├── end-of-stream@1.4.0 </tspan>
<tspan x="10" y="2474">  │     │ └─┬ once@1.4.0 </tspan>
<tspan x="10" y="2490">  │     │   └── wrappy@1.0.2 </tspan>
<tspan x="10" y="2506">  │     ├─┬ rc@1.2.1 </tspan>
<tspan x="10" y="2522">  │     │ ├── deep-extend@0.4.1 </tspan>
<tspan x="10" y="2538">  │     │ ├── ini@1.3.4 </tspan>
<tspan x="10" y="2554">  │     │ ├── minimist@1.2.0 </tspan>
<tspan x="10" y="2570">  │     │ └── strip-json-comments@2.0.1 </tspan>
<tspan x="10" y="2586">  │     ├─┬ simple-get@1.4.3 </tspan>
<tspan x="10" y="2602">  │     │ ├── unzip-response@1.0.2 </tspan>
<tspan x="10" y="2618">  │     │ └── xtend@4.0.1 </tspan>
<tspan x="10" y="2634">  │     ├─┬ tar-fs@1.15.2 </tspan>
<tspan x="10" y="2650">  │     │ ├── chownr@1.0.1 </tspan>
<tspan x="10" y="2666">  │     │ └─┬ tar-stream@1.5.2 </tspan>
<tspan x="10" y="2682">  │     │   ├─┬ bl@1.2.0 </tspan>
<tspan x="10" y="2698">  │     │   │ └─┬ readable-stream@2.2.9 </tspan>
<tspan x="10" y="2714">  │     │   │   ├── isarray@1.0.0 </tspan>
<tspan x="10" y="2730">  │     │   │   └── string_decoder@1.0.0 </tspan>
<tspan x="10" y="2746">  │     │   ├─┬ readable-stream@2.2.9 </tspan>
<tspan x="10" y="2762">  │     │   │ ├── buffer-shims@1.0.0 </tspan>
<tspan x="10" y="2778">  │     │   │ ├── isarray@1.0.0 </tspan>
<tspan x="10" y="2794">  │     │   │ ├── process-nextick-args@1.0.7 </tspan>
<tspan x="10" y="2810">  │     │   │ ├── string_decoder@1.0.0 </tspan>
<tspan x="10" y="2826">  │     │   │ └── util-deprecate@1.0.2 </tspan>
<tspan x="10" y="2842">  │     │   └── xtend@4.0.1 </tspan>
<tspan x="10" y="2858">  │     ├── tunnel-agent@0.4.3 </tspan>
<tspan x="10" y="2874">  │     └── xtend@4.0.1 </tspan>
<tspan x="10" y="2890">  ├── marked@0.3.6 </tspan>
<tspan x="10" y="2906">  ├── minimist@0.0.10 </tspan>
<tspan x="10" y="2922">  ├── observable@2.1.4 </tspan>
<tspan x="10" y="2938">  ├─┬ shoe@0.0.15 </tspan>
<tspan x="10" y="2954">  │ ├─┬ sockjs@0.3.7 </tspan>
<tspan x="10" y="2970">  │ │ ├── faye-websocket@0.4.4 </tspan>
<tspan x="10" y="2986">  │ │ └── node-uuid@1.3.3 </tspan>
<tspan x="10" y="3002">  │ └── sockjs-client@0.0.0-unreleasable </tspan>
<tspan x="10" y="3018">  ├─┬ split@0.3.3 </tspan>
<tspan x="10" y="3034">  │ └── through@2.3.8 </tspan>
<tspan x="10" y="3050">  ├── strftime@0.8.4 </tspan>
<tspan x="10" y="3066">  ├── through@1.1.2 </tspan>
<tspan x="10" y="3082">  ├─┬ through2@0.6.5 </tspan>
<tspan x="10" y="3098">  │ ├── readable-stream@1.0.34 </tspan>
<tspan x="10" y="3114">  │ └── xtend@4.0.1 </tspan>
<tspan x="10" y="3130">  ├─┬ trumpet@1.6.6 </tspan>
<tspan x="10" y="3146">  │ ├── duplexer2@0.0.2 </tspan>
<tspan x="10" y="3162">  │ ├─┬ html-select@2.3.24 </tspan>
<tspan x="10" y="3178">  │ │ ├── cssauron@1.4.0 </tspan>
<tspan x="10" y="3194">  │ │ ├─┬ stream-splicer@1.3.2 </tspan>
<tspan x="10" y="3210">  │ │ │ ├── indexof@0.0.1 </tspan>
<tspan x="10" y="3226">  │ │ │ ├── readable-wrap@1.0.0 </tspan>
<tspan x="10" y="3242">  │ │ │ └─┬ through2@1.1.1 </tspan>
<tspan x="10" y="3258">  │ │ │   └── xtend@4.0.1 </tspan>
<tspan x="10" y="3274">  │ │ └─┬ through2@1.1.1 </tspan>
<tspan x="10" y="3290">  │ │   └── xtend@4.0.1 </tspan>
<tspan x="10" y="3306">  │ ├─┬ html-tokenize@1.2.5 </tspan>
<tspan x="10" y="3322">  │ │ ├── readable-stream@1.0.34 </tspan>
<tspan x="10" y="3338">  │ │ └─┬ through2@0.4.2 </tspan>
<tspan x="10" y="3354">  │ │   └─┬ xtend@2.1.2 </tspan>
<tspan x="10" y="3370">  │ │     └── object-keys@0.4.0 </tspan>
<tspan x="10" y="3386">  │ └─┬ through2@1.1.1 </tspan>
<tspan x="10" y="3402">  │   └── xtend@4.0.1 </tspan>
<tspan x="10" y="3418">  ├── webaudio@2.0.0 </tspan>
<tspan x="10" y="3434">  └── webworkify@0.1.1</tspan>
</text>
</svg>
